<svg style="max-width:300px;width:100%;height:auto;" xmlns="http://www.w3.org/2000/svg" id="sdc-logo" viewBox="0 0 150.08 56.96">
  <defs>
    <style>
      .fill-green{fill:#008d83;}.fill-gold{fill:#b4946e;}
    </style>
  </defs>
  <path class="fill-green" d="M73.67 52.1a6.4 6.4 0 0 1-6.55 4.82c-4.15 0-7-2.9-7-7.2s2.88-7.3 6.88-7.3a6.47 6.47 0 0 1 5.2 2.47v-2.25h1v4.5h-1a3.77 3.77 0 0 0-.78-1.72 5.65 5.65 0 0 0-4.4-2c-3.4 0-5.8 2.54-5.8 6.18s2.43 6.3 5.88 6.3a5.32 5.32 0 0 0 4.7-2.45 6.9 6.9 0 0 0 .9-1.9l.9.53zm8.57 3.8a5.85 5.85 0 0 1-6-6.24c0-3.6 2.48-6.22 5.9-6.22S88 46.06 88 49.67s-2.46 6.22-5.8 6.22zm-.07-13.47a6.9 6.9 0 0 0-7 7.2 6.9 6.9 0 0 0 7.16 7.3c4 0 6.92-3.07 6.92-7.28a6.9 6.9 0 0 0-7-7.22zm8.07 1.17H92v7.86a6.92 6.92 0 0 0 .37 3.13c.56 1.45 2.27 2.34 4.48 2.34 2 0 3.72-.87 4.34-2.26a6.22 6.22 0 0 0 .4-3v-8h1.8v-.93h-4.7v.93h1.73v8.77a5.44 5.44 0 0 1-.25 1.76c-.38 1.06-1.74 1.8-3.43 1.8a3.34 3.34 0 0 1-3.22-1.77 5.88 5.88 0 0 1-.3-2.67V43.6H95v-.93h-4.77v.94zm13.54 12.22v.93h4.83v-.93h-2V44l8.46 13h1.07V43.62H118v-.93h-4.77v.92h2v11.5l-8.06-12.44h-3.3v.93h1.88v12.22zm29.46-3.67l-.9-.52a6.8 6.8 0 0 1-.92 1.9 5.3 5.3 0 0 1-4.7 2.47c-3.45 0-5.88-2.6-5.88-6.3s2.4-6.17 5.8-6.17a5.64 5.64 0 0 1 4.4 2 3.75 3.75 0 0 1 .78 1.72h1V42.7h-1v2.24a6.46 6.46 0 0 0-5.2-2.47c-4 0-6.87 3-6.88 7.3s2.82 7.2 7 7.2a6.42 6.42 0 0 0 6.55-4.82zm1 3.7v.92h4.7v-.93h-1.76v-12.2h1.76v-.94h-4.7v.93H136v12.22zm5.47 0v.92h10v-5.6h-1.1v4.67h-5.75v-12.2h1.86v-.93h-5v.94h1.9v12.2z"></path>
  <path class="fill-green" d="M64.08 33.42h1.1a14.5 14.5 0 0 0 2.94-.23 4.58 4.58 0 0 0 1.83-.8 3.88 3.88 0 0 0 1.2-1.68 6.93 6.93 0 0 0 .47-2.65 5.88 5.88 0 0 0-.77-3.07 3.56 3.56 0 0 0-1.94-1.65 12.66 12.66 0 0 0-3.63-.35h-1.2v10.42zm-2.1 0V23h-1.9v-1.8h5.4a19.6 19.6 0 0 1 3.45.23 5.88 5.88 0 0 1 2.35 1 5.68 5.68 0 0 1 1.82 2.24 7.43 7.43 0 0 1 .67 3.33 9.1 9.1 0 0 1-.65 3.6 5.2 5.2 0 0 1-1.7 2.28 6.52 6.52 0 0 1-2.53 1.05 19.28 19.28 0 0 1-3.73.3h-5.1v-1.8zm15 0V23h-1.5v-1.8h5.1V23h-1.5v10.42h1.52v1.76h-5.13v-1.76zm5 1.76V30.1h1.74v1.24A3.72 3.72 0 0 0 87 33.62a2.55 2.55 0 0 0 1.75-.62 2.1 2.1 0 0 0 .7-1.66 1.67 1.67 0 0 0-.57-1.43 7 7 0 0 0-2.2-.86 15.8 15.8 0 0 1-2.78-.95 3.57 3.57 0 0 1-1.44-1.3 3.52 3.52 0 0 1-.54-2A3.6 3.6 0 0 1 83.1 22a4.25 4.25 0 0 1 2.9-1 5 5 0 0 1 3.1 1.1v-.95h1.72v4.24h-1.68v-1a3.38 3.38 0 0 0-3-1.63 2.6 2.6 0 0 0-1.76.53 1.65 1.65 0 0 0-.3 2.25 1.8 1.8 0 0 0 .8.63 16.37 16.37 0 0 0 1.9.56 15 15 0 0 1 2.68.9A3.64 3.64 0 0 1 90.94 29a4.17 4.17 0 0 1 .6 2.24 3.85 3.85 0 0 1-1.26 3 4.43 4.43 0 0 1-3.12 1.17 5 5 0 0 1-3.44-1.4v1.16zM97 33.42V23h-2.9v3.57h-1.68V21.2h11.33v5.32H102V23h-2.85v10.42H101v1.76h-5.7v-1.76zm11.23-6.54h1.65a7.33 7.33 0 0 0 1.77-.15 1.7 1.7 0 0 0 .93-.63 2 2 0 0 0 .36-1.28 1.8 1.8 0 0 0-.37-1.15 1.57 1.57 0 0 0-.9-.6 7.85 7.85 0 0 0-1.65-.13h-1.8v3.93zm-2.1 6.54V23h-1.92v-1.8h5.7a11.4 11.4 0 0 1 2.8.28 3.13 3.13 0 0 1 1.74 1.16 3.52 3.52 0 0 1 .7 2.2 3.33 3.33 0 0 1-2.9 3.5l2.48 5.08h1.7v1.76h-3l-3.17-6.54h-2v4.78h1.78v1.76h-5.8v-1.76zm12.42 0V23h-1.5v-1.8h5.1V23h-1.45v10.42h1.5v1.76h-5.1v-1.76zm17.13-3.93l1.82 1a6.1 6.1 0 0 1-2.48 3.6 7.38 7.38 0 0 1-4.3 1.28 6.64 6.64 0 0 1-5.1-2.06 7.18 7.18 0 0 1-1.9-5.1 7.23 7.23 0 0 1 1.96-5.22 6.74 6.74 0 0 1 5-2 7.14 7.14 0 0 1 4.6 1.5v-1.3h1.82v4.5h-1.8a4.54 4.54 0 0 0-1.87-2.12 5.1 5.1 0 0 0-2.65-.75 4.4 4.4 0 0 0-3.43 1.5 5.5 5.5 0 0 0-1.34 3.8 5.33 5.33 0 0 0 1.5 3.87 4.58 4.58 0 0 0 3.4 1.5 4.68 4.68 0 0 0 2.95-1 5.53 5.53 0 0 0 1.87-3zm7.65 3.92V23h-2.9v3.57h-1.72V21.2h11.34v5.32h-1.73V23h-2.87v10.42h1.8v1.76h-5.7v-1.76z"></path>
  <path class="fill-green" d="M60.25 14.2V9.13h2v1.23A4.3 4.3 0 0 0 66 12.63a3.17 3.17 0 0 0 2-.63 2 2 0 0 0 .8-1.66 1.58 1.58 0 0 0-.66-1.43 8.75 8.75 0 0 0-2.5-.9 20 20 0 0 1-3.18-.95 4 4 0 0 1-1.65-1.28 3.2 3.2 0 0 1-.6-2A3.4 3.4 0 0 1 61.53 1a5.3 5.3 0 0 1 3.36-1 6.33 6.33 0 0 1 3.55 1.1V.14h2v4.23h-2v-1a4 4 0 0 0-3.38-1.58 3.3 3.3 0 0 0-2 .53 1.54 1.54 0 0 0-.7 1.26 1.5 1.5 0 0 0 .36 1 2.1 2.1 0 0 0 .9.62 21.53 21.53 0 0 0 2.2.56 18.6 18.6 0 0 1 3.06.9 4 4 0 0 1 1.64 1.4 3.8 3.8 0 0 1 .7 2.23 3.64 3.64 0 0 1-1.45 3 5.5 5.5 0 0 1-3.58 1.17A6.18 6.18 0 0 1 62.25 13v1.2zm17.24-1.75h-2v1.75H82v-1.76h-2.1V2h3.3v3.54h2V.22h-13v5.32h2V2h3.3v10.44zM90.32 5.9V2h2a10.24 10.24 0 0 1 1.88.13 1.85 1.85 0 0 1 1 .6 1.67 1.67 0 0 1 .43 1.14 1.88 1.88 0 0 1-.4 1.28 2 2 0 0 1-1.07.63 9.55 9.55 0 0 1-2 .15zm-2.4 6.55h-2.2v1.75h6.65v-1.76h-2V7.66h2.25l3.64 6.54h3.43v-1.76h-2l-2.78-5.08q3.3-.7 3.3-3.5a3.23 3.23 0 0 0-.8-2.2 3.65 3.65 0 0 0-2-1.16 14.87 14.87 0 0 0-3.2-.28h-6.48V2h2.2v10.44zM103 7.15a5.05 5.05 0 0 1 1.56-3.77 5.5 5.5 0 0 1 4-1.52 5.72 5.72 0 0 1 4.1 1.54 5 5 0 0 1 1.62 3.77 5.17 5.17 0 0 1-1.6 3.8 5.55 5.55 0 0 1-4.1 1.6 5.45 5.45 0 0 1-4.06-1.57A5.26 5.26 0 0 1 103 7.15zm-2.62 0a7.24 7.24 0 0 0 1 3.6 6.65 6.65 0 0 0 2.93 2.7 9.47 9.47 0 0 0 4.3 1 8.85 8.85 0 0 0 6-2 6.57 6.57 0 0 0 2.36-5.2A6.56 6.56 0 0 0 114.58 2a8.77 8.77 0 0 0-6-2 8.55 8.55 0 0 0-5.94 2 6.57 6.57 0 0 0-2.28 5.1zM122.76 2h1.9V.22h-6.28V2h2v7.06a10.33 10.33 0 0 0 .2 2.4 3.52 3.52 0 0 0 .8 1.46 4.17 4.17 0 0 0 1.8 1.08 9.58 9.58 0 0 0 3 .4A7.9 7.9 0 0 0 129 14a4.4 4.4 0 0 0 1.78-1.16 3.25 3.25 0 0 0 .77-1.4 11.2 11.2 0 0 0 .14-2.14V2h2V.22h-6.28V2h1.86v7.06a7 7 0 0 1-.25 2.25 1.94 1.94 0 0 1-1 1 5 5 0 0 1-2.2.4 3.9 3.9 0 0 1-2-.45 1.9 1.9 0 0 1-.94-1.06 8.76 8.76 0 0 1-.14-2.2V2zm16.12 10.47V2h1.37a16.32 16.32 0 0 1 4.15.4 4 4 0 0 1 2.22 1.6 5.3 5.3 0 0 1 .87 3.08 6.16 6.16 0 0 1-.5 2.66 3.94 3.94 0 0 1-1.38 1.68 5.64 5.64 0 0 1-2.1.8 19 19 0 0 1-3.34.22zm-2.4 0h-2.18v1.73h5.82a25 25 0 0 0 4.26-.3 8 8 0 0 0 2.88-1 5.36 5.36 0 0 0 2-2.28A8.06 8.06 0 0 0 150 7a6.67 6.67 0 0 0-.77-3.24 6 6 0 0 0-2.08-2.24 7.3 7.3 0 0 0-2.68-1 25.88 25.88 0 0 0-3.95-.23h-6.18V2h2.17v10.44z"></path>
  <g id="logo">
    <path class="fill-green" d="M53.66 23.28c-5.55.34-10 3.52-13.68 7.07a8 8 0 0 0-1.3 1.3h-.34c0-.3-.24-.9.3-1 .23-.22.1-.64.1-.94-1.67-1.08-3.48-2-5.13-3 0-.2.3-.3.46-.43.35 0 .67.14 1.05 0a30.26 30.26 0 0 0-1.5-3.14c-1.6-3.2-3.3-6.4-5-9.57L28.7 12v-.1l-.92.28c.2-.48.74-.75 1.08-1.13l1.63-1.57a9.74 9.74 0 0 0 1.12-1c5.26-4.54 12.08-7.07 19.27-8a10.85 10.85 0 0 1 1.76.05 3.63 3.63 0 0 1 1-.06v22.8zM23.36 11.7C16.75 6 8.58 2.58 0 .75V26.47c.54-.1 1.1-.14 1.6-.26v-1c.1-.22.45-.14.6-.3a1.5 1.5 0 0 1 .57-1.38c.18-1.7.2-3.47.33-5.2.12-1.5.13-3.05.25-4.55.1-1.9.32-3.84.34-5.82.17-.45 0-1 .13-1.5-.07-.24-.36-.23-.56-.28 0-.42-.16-.94.16-1.3 0-.7.55-1.2 1.3-1.5a9.46 9.46 0 0 1 2.3 0l1.23 1v.4c.37.36 0 .8.1 1.25-.14.17-.5.07-.5.38 0 3 .4 5.6.44 8.54l.1 2.24.08.1.34 5.9.3.24c.17.16.08.52.33.56a25.73 25.73 0 0 0 5.1-3.47c3.43-2.5 5.74-5.7 8.64-8.7v-.17zm2.9 2.52v-.38c-2.3 2.07-4.15 4.44-6.25 6.67a37.66 37.66 0 0 1-6.2 5.56h.4c1.8-.43 4.07 0 5.77-.17q3.17-5.78 6.34-11.65z"></path>
    <path class="fill-gold" d="M6.92 4c.27.34 1 .5.8 1.1.1.1.22.22.14.37a5.5 5.5 0 0 1-.94-.3L4.8 5.2a3.1 3.1 0 0 1-.75.27c-.1-.28.28-.47.18-.8a2.48 2.48 0 0 1 .94-.7h1.75zM6.4 5.55a3.1 3.1 0 0 0-.94 0L5.4 7.73c-.15 5-.25 10.25-.34 15.15a4.92 4.92 0 0 0 1.68 0v-.08l-.16-7-.1-7.42a17.6 17.6 0 0 1-.08-2.83zm1.12.23c-.25-.08-.54-.35-.78-.12a15.93 15.93 0 0 0 0 2.53c0 4.9.17 9.85.3 14.72a9.76 9.76 0 0 0 1.06.25c.2-.07.1-.36.07-.5 0-.68-.16-1.36-.1-2-.26-4.16-.5-8.25-.77-12.24.16-.9-.35-1.87.18-2.6zm-2.44-.14c-.3-.13-.45.14-.7.17a1.33 1.33 0 0 0 .17.5c-.08 2.07-.2 4.22-.34 6.2 0 .76-.13 1.5-.1 2.27-.2 1.54-.18 3.17-.27 4.75l-.07.1c0 1.38-.22 2.47-.18 3.83a4.56 4.56 0 0 0 1.1-.45l.07-1.5c0-2.23.17-4.45.1-6.66.2-1 0-2.2.15-3.25 0-2 .13-3.76.1-6zm23 7.35c-.34-.35-.36.24-.5.4s-.3-.08-.4-.22c-.5.1-.23.75-.3 1.15L26 16.1c-1.76 3.37-3.63 6.64-5.4 10a35 35 0 0 0 3.5-.46 24.74 24.74 0 0 0 2.53-.42c.24-1.57.44-3.2.6-4.8.18-.74.12-1.55.32-2.27.08-1.74.56-3.37.54-5.17zm6 12.6c-1.76-3.73-3.8-7.45-5.7-11.06l-.1.2c-.28 3.05-.87 6.25-1.1 9.4l-.1.2c.16.34-.3.77.14.9.88 0 1.6.17 2.5.17l2.3.1a9.53 9.53 0 0 0 2.06.1zm-25.8-1.95a15.42 15.42 0 0 0-3.16-.23c-.64.18-1.22.47-1.83.7s-.22.72-.28 1c.8-.12 1.58-.4 2.4-.56L7 24.7h.92c.28-.2.87-.12.85-.6 0-.28-.3-.34-.5-.5zM6.8 25.08c-.4-.12-.88 0-1.3-.15-1 .28-2.08.46-3.08.8v.38a21.9 21.9 0 0 0 4.34-1zm21.64.57c-.45-.1-1 0-1.43-.1h-.08v3.62l.23.2c2 0 3.88.2 5.8.15L33 26.3c.06-.16.3-.1.3-.3l-.1-.06c-1.53-.16-3.16-.2-4.75-.3zm-8.08.92c-1.5 0-3-.12-4.48-.13-.43 1-.68 2.12-1.07 3.16l.08.1H17c1.43-.08 2.78.18 4.06 0V27l-.7-.44zm-4.86 0c-1.12 0-2.16.35-3.27.46a22.86 22.86 0 0 1-3.25 1.65c-.6.1-.28.7-.36 1.1a2 2 0 0 0-.6.6h.18c1.17 0 2.25-.3 3.43-.3.9-.22 2-.1 2.86-.35l1.04-3.1zm11 2.85c-.34.13-.8 0-1.14.1-1.32.07-2.68.23-4 .2V26.9c-.1-.18-.37-.16-.47-.36.08-.16.33 0 .48-.1 1.68-.24 3.4-.53 5-.8h.13a34.57 34.57 0 0 1 .03 3.75zm-2.25-2.12c-.14-.13-.26-.47-.56-.4l-.35.2a1.68 1.68 0 0 0-.1 1.58.57.57 0 0 0 .7.32 1.57 1.57 0 0 0 .3-1.7zm13.5 2.7c-1.44-.9-2.93-1.72-4.4-2.54l-.08 2.43.07.1a15.27 15.27 0 0 1 2.08.06 19 19 0 0 0 2.33-.06zm-29.38-.8c0-.16 0-.3-.24-.25a17.68 17.68 0 0 1-3.27 1 2.4 2.4 0 0 0 0 1.1v21.6l.1.05c.77-.2 1.56-.12 2.3-.37V31.8l.06-1.44c.4-.32 1-.57 1-1.13zm24.5.8c-2-.1-3.93-.12-5.88-.23h-.1V43.6l.1.4a37.18 37.18 0 0 0 5.9-5.57L33 30.2l-.12-.2zM4.53 41.3V30l-2.4.38v22.5h.07c.72-.12 1.5-.07 2.2-.2v-3.62h.1V41.3zM37.8 30.4c-1.52.06-2.92-.2-4.47-.1a7.73 7.73 0 0 0 0 2h1.86a20.33 20.33 0 0 0 2.4-.3c0-.58-.13-1.17.22-1.63zm-36.06.5v-.44A7.52 7.52 0 0 0 0 30.6v.52a7.4 7.4 0 0 1 1.17 0c.16-.13.5 0 .56-.2zm0 9.1v-8.7L0 31.47V53c.6.1 1-.16 1.64-.1l.1-12.9zm36.15-7.5c-.18 0-.47-.13-.66 0l-3.6.08-.36.1v5.23h.1c1.47-1.74 3.07-3.63 4.5-5.4zm-18.44.18a21 21 0 0 0-.07 2.5 9.1 9.1 0 0 0 1.58.05v2H19.4v3H21v1.88l-1.6.07v3l1.6.08v1.93l-1.6.06v1.36c-.6.2-1.1.6-1.7.78l-.1-.06a10.5 10.5 0 0 0 0-1.2v-.9h-1.75a27.48 27.48 0 0 0-.1 2.88 3.05 3.05 0 0 1-1 .36l-.08-4.08V30.12l6.22.06.08.1a16.53 16.53 0 0 1 .02 2.2 1 1 0 0 0-.83-.26c-.33-.03-.55.25-.72.46zm-1.93 9.6a6.22 6.22 0 0 0-1.32-.1c-.1.08-.3-.05-.37.1v2.88h1.7zm0-5a15.07 15.07 0 0 0-1.68 0 21.84 21.84 0 0 0 0 3h1.63zm.06-2.12l-.07-2.54-.27-.27a1.2 1.2 0 0 0-.87 0c-1 .56-.37 1.93-.55 2.9a4 4 0 0 0 1.74-.12zm9 .23l-.1 9.12a8.43 8.43 0 0 1-1.07.7l-.07-2.8c-.2-.08-.56.04-.67-.12h-.2v2.91c.26.14.64 0 .88.12a29.24 29.24 0 0 1-3.87 2.26V30.12c1.35-.1 2.85-.28 4.1-.33h1zm-3.24 6.92h-.94c-.08.86 0 1.9 0 2.87h.94zm0-5a1.72 1.72 0 0 0-1 0 28.77 28.77 0 0 0 0 2.93c.3 0 .72.1.94-.1zm.1-4.77a.65.65 0 0 0-.7-.3c-.17 0-.22.2-.3.32v2.5l.08.1.87-.07zm1.85 4.63h-.75a9.45 9.45 0 0 0-.07 1.72c.1.5-.1.77.1 1.22l.75.14a30.74 30.74 0 0 0-.03-3.1zm.12-4.6c-.07-.45-.8-.4-.92 0v2.62a4.72 4.72 0 0 0 1 0zm-11.1-2.47v20.5a29.48 29.48 0 0 1-4.42 1.27c-.73.16-1.48.27-2.22.4-.1-.9 0-1.7-.1-2.55v-19a10.87 10.87 0 0 1 2.54-.3c1.25 0 2.52-.26 3.8-.35zM8.6 35.15h1v-2.72a.6.6 0 0 0-.6-.2c-.25 0-.24.28-.36.43zm0 5h.94v-2.9a3.47 3.47 0 0 0-1 0 27.62 27.62 0 0 0 .1 2.9zm0 5h1v-3a2.47 2.47 0 0 0-1 0zm1 5v-3h-.93v3zm1.86 0v-2.07a3.93 3.93 0 0 1 0-.9h-.85a29.52 29.52 0 0 0 0 3 5 5 0 0 0 .88-.06zm-.07-5V42.2a4.35 4.35 0 0 0-.9 0v2.92zm.06-7.85a2.38 2.38 0 0 0-.94.05V40l.07.17h.86zm.07-4.57l-.16-.3a.5.5 0 0 0-.83.16v2.65h.87zm1.97 14.5l-.07-.1h-.94a21.84 21.84 0 0 0 0 3 4.53 4.53 0 0 0 1 0zm0-5.08h-1v2.95h1zm0-4.9a3.8 3.8 0 0 0-1 0v2.88a4.88 4.88 0 0 0 1 0 26.82 26.82 0 0 0 0-2.87zm0-3.15a3.3 3.3 0 0 0-.1-1.7.74.74 0 0 0-.57-.18c-.12.06-.32.1-.34.27v2.65h.9c.24-.25.14-.73.1-1.05z"></path>
  </g>
</svg>
